Coordinates
version=1
nRows=5
nColumns=40
inDegrees=yes

Units are S.I. units (second, meters, Newtons, ...)
Angles are in degrees.

endheader
time	pelvis_tilt	pelvis_list	pelvis_rotation	pelvis_tx	pelvis_ty	pelvis_tz	hip_flexion_r	hip_adduction_r	hip_rotation_r	knee_angle_r	knee_angle_r_beta	ankle_angle_r	subtalar_angle_r	mtp_angle_r	hip_flexion_l	hip_adduction_l	hip_rotation_l	knee_angle_l	knee_angle_l_beta	ankle_angle_l	subtalar_angle_l	mtp_angle_l	lumbar_extension	lumbar_bending	lumbar_rotation	arm_flex_r	arm_add_r	arm_rot_r	elbow_flex_r	pro_sup_r	wrist_flex_r	wrist_dev_r	arm_flex_l	arm_add_l	arm_rot_l	elbow_flex_l	pro_sup_l	wrist_flex_l	wrist_dev_l
      2.73000000	     -2.17405848	     -5.42958663	      6.13341507	      1.08811029	      0.93095756	      0.51046315	     12.94494093	      4.05908448	    -12.51855387	     16.99397996	     16.99397996	      8.69188221	     -2.57524630	     -5.57971813	     30.93704106	    -13.33892424	      3.29033286	     63.75828946	     63.75828946	     10.67642330	    -19.27391664	     19.01120579	    -12.46421472	      5.54808109	      0.90156964	     14.93573033	    -18.35518818	     -0.57344177	     54.57088553	     45.39448711	      0.00000000	      0.00000000	      6.33026003	     -8.80005914	    -10.11395526	     34.76074691	     45.38380182	      0.00000000	      0.00000000
      2.74378571	     -2.37686877	     -5.21945230	      6.48696631	      1.08681808	      0.93132928	      0.51151523	     12.62804536	      3.92700739	    -12.74405459	     16.62629664	     16.62629664	      8.83354702	     -2.49031648	     -5.66334973	     31.98496277	    -12.97306981	      2.96521942	     60.86627502	     60.86627502	     11.22059964	    -19.25694667	     18.78757918	    -12.43645303	      5.30212545	      0.78812004	     16.32132207	    -18.33002899	     -0.67482920	     56.05726039	     45.35446006	      0.00000000	      0.00000000	      5.42346057	     -8.83895153	    -10.16344053	     33.91978960	     45.39879042	      0.00000000	      0.00000000
      2.75757143	     -2.63115268	     -5.02199954	      6.84212885	      1.08553742	      0.93156576	      0.51245261	     12.37201105	      3.76398065	    -13.13679325	     16.27499765	     16.27499765	      8.93397881	     -2.16422130	     -5.96318393	     32.82043780	    -12.53636206	      2.64287998	     57.53323688	     57.53323688	     11.32459620	    -19.21834327	     17.74136589	    -12.34459623	      5.08995976	      0.90401202	     17.30907264	    -18.69066183	     -0.36415854	     58.31552156	     45.27393167	      0.00000000	      0.00000000	      4.94877125	     -8.73822922	    -10.43333584	     32.32599768	     45.49072320	      0.00000000	      0.00000000
      2.77135714	     -2.82931054	     -4.79942102	      7.19004946	      1.08428660	      0.93186375	      0.51327452	     12.06875142	      3.59659699	    -13.38023360	     15.95147544	     15.95147544	      9.09394380	     -2.03010834	     -6.05875620	     33.34789787	    -11.95220054	      2.43306641	     53.86559568	     53.86559568	     11.44095073	    -19.12770086	     17.22144599	    -12.32981225	      4.84743135	      0.87576627	     18.64865214	    -18.76318038	     -0.39370228	     59.81917975	     45.23408613	      0.00000000	      0.00000000	      4.25817262	     -8.71767973	    -10.59275308	     31.19637634	     45.53650803	      0.00000000	      0.00000000
      2.78514286	     -3.09727853	     -4.54959599	      7.49607159	      1.08305485	      0.93203462	      0.51393824	     11.87729118	      3.38697651	    -13.54806869	     15.70218801	     15.70218801	      9.25060636	     -2.01892949	     -6.09673051	     33.75182041	    -11.22236810	      2.35960676	     49.96697202	     49.96697202	     11.53143862	    -18.93634431	     17.23934148	    -12.19418709	      4.54016513	      1.09504205	     19.87083734	    -18.96843687	     -0.50281504	     60.70565206	     45.21512603	      0.00000000	      0.00000000	      3.57191459	     -8.64122905	    -10.64233240	     30.60073188	     45.54259697	      0.00000000	      0.00000000
